<?xml version="1.0" encoding="utf-8"?>
<!-- Generator: Adobe Illustrator 24.0.3, SVG Export Plug-In . SVG Version: 6.00 Build 0)  -->
<svg version="1.1" id="Layer_1" xmlns="http://www.w3.org/2000/svg" xmlns:xlink="http://www.w3.org/1999/xlink" x="0px" y="0px"
	 viewBox="0 0 185 66" style="enable-background:new 0 0 185 66;" xml:space="preserve">
<style type="text/css">
	.st0{fill:#B12A25;}
</style>
<g>
	<path class="st0" d="M2.3,21.6l8.9-6.8c2.2-1.7,3.1-2.9,3.1-4.3c0-1.5-1.1-2.4-2.7-2.4S8.7,9,6.9,11.2L2.5,7.5
		c2.5-3.3,5-5.1,9.6-5.1c5.2,0,8.8,3.1,8.8,7.6l0,0c0,3.8-2,5.8-5.5,8.3l-4.1,2.9h9.8v5.4H2.3V21.6z"/>
	<path class="st0" d="M23.8,14.8L23.8,14.8c0-6.8,4.3-12.4,11-12.4s11,5.6,11,12.3v0.1c0,6.7-4.2,12.4-11,12.4
		C28,27.1,23.8,21.5,23.8,14.8z M39.2,14.8L39.2,14.8c0-3.8-1.8-6.6-4.4-6.6c-2.6,0-4.3,2.7-4.3,6.5v0.1c0,3.8,1.8,6.5,4.4,6.5
		S39.2,18.5,39.2,14.8z"/>
	<path class="st0" d="M48,21.6l8.9-6.8c2.2-1.7,3.1-2.9,3.1-4.3c0-1.5-1.1-2.4-2.7-2.4c-1.6,0-2.9,0.9-4.7,3.1l-4.5-3.7
		c2.5-3.3,5.1-5.1,9.7-5.1c5.2,0,8.8,3.1,8.8,7.6l0,0c0,3.8-2,5.8-5.5,8.3L57,21.2h9.8v5.4H48V21.6z"/>
	<path class="st0" d="M69.4,14.8L69.4,14.8c0-6.8,4.3-12.4,11-12.4s11,5.6,11,12.3v0.1c0,6.7-4.2,12.4-11,12.4
		C73.6,27.1,69.4,21.5,69.4,14.8z M84.8,14.8L84.8,14.8c0-3.8-1.8-6.6-4.4-6.6s-4.3,2.7-4.3,6.5v0.1c0,3.8,1.8,6.5,4.4,6.5
		C83.1,21.2,84.8,18.5,84.8,14.8z"/>
	<path class="st0" d="M2.5,48.7L2.5,48.7c0-7,5.3-12.4,12.5-12.4c4.9,0,8,2,10.1,5l-5,3.8c-1.4-1.7-2.9-2.8-5.2-2.8
		c-3.3,0-5.7,2.8-5.7,6.3v0.1c0,3.6,2.3,6.4,5.7,6.4c2.5,0,3.9-1.2,5.4-2.9l5,3.5C23,58.7,20,61,14.8,61C8,61,2.5,55.8,2.5,48.7z"/>
	<path class="st0" d="M33.9,42.5h-7.1v-5.8h20.9v5.8h-7.1v18H34L33.9,42.5L33.9,42.5z"/>
	<path class="st0" d="M48.2,57l3.7-4.4c2.3,1.9,5,2.9,7.7,2.9c1.8,0,2.7-0.6,2.7-1.6v-0.1c0-1-0.8-1.5-4-2.3c-5.1-1.2-9-2.6-9-7.5
		v-0.1c0-4.4,3.5-7.6,9.2-7.6c4,0,7.2,1.1,9.8,3.2L65,44.1c-2.2-1.5-4.6-2.3-6.7-2.3c-1.6,0-2.4,0.7-2.4,1.5v0.1
		c0,1.1,0.8,1.6,4.1,2.3c5.5,1.2,8.9,3,8.9,7.4v0.1c0,4.9-3.8,7.7-9.6,7.7C55.1,60.9,51.1,59.6,48.2,57z"/>
	<path class="st0" d="M71.4,48.7L71.4,48.7c0-7,5.3-12.4,12.5-12.4c4.9,0,8,2,10.1,5l-5,3.8c-1.4-1.7-2.9-2.8-5.2-2.8
		c-3.3,0-5.7,2.8-5.7,6.3v0.1c0,3.6,2.3,6.4,5.7,6.4c2.5,0,3.9-1.2,5.4-2.9l5,3.5c-2.2,3.1-5.3,5.4-10.5,5.4
		C76.8,61,71.4,55.8,71.4,48.7z"/>
	<path class="st0" d="M105,36.6h6.4l10.1,24h-7.1l-1.7-4.2h-9.2l-1.7,4.2h-6.9L105,36.6z M110.8,51.1l-2.7-6.8l-2.7,6.8H110.8z"/>
	<path class="st0" d="M123.8,36.7H134c6,0,9.9,3.1,9.9,8.4v0.1c0,5.6-4.3,8.6-10.2,8.6h-3.3v6.8h-6.6
		C123.8,60.6,123.8,36.7,123.8,36.7z M133.5,48.6c2.3,0,3.8-1.2,3.8-3.1v-0.1c0-2-1.4-3.1-3.8-3.1h-3.1v6.3
		C130.4,48.6,133.5,48.6,133.5,48.6z"/>
	<path class="st0" d="M146.6,36.7h19.1v5.6h-12.6v3.6h11.4v5.2h-11.4v3.8h12.8v5.6h-19.3V36.7z"/>
</g>
</svg>
